<?xml version="1.0" standalone="no"?>
<!DOCTYPE svg PUBLIC "-//W3C//DTD SVG 20010904//EN"
 "http://www.w3.org/TR/2001/REC-SVG-20010904/DTD/svg10.dtd">
<svg version="1.0" xmlns="http://www.w3.org/2000/svg"
 width="512.000000pt" height="512.000000pt" viewBox="0 0 512.000000 512.000000"
 preserveAspectRatio="xMidYMid meet">

<g transform="translate(0.000000,512.000000) scale(0.100000,-0.100000)"
fill="#000000" stroke="none">
<path d="M1560 4806 l0 -312 71 -11 c252 -39 431 -282 392 -532 -23 -149 -127
-293 -255 -355 l-58 -28 0 -49 0 -49 -75 0 -75 0 0 -110 0 -109 73 -3 72 -3 3
-152 3 -153 -76 0 -75 0 0 -451 0 -451 38 27 c182 136 355 290 542 482 313
321 513 626 609 927 49 152 64 248 63 398 -2 329 -134 643 -372 878 -218 216
-500 342 -812 363 l-68 5 0 -312z"/>
<path d="M1560 4016 l0 -166 28 6 c48 12 92 45 113 87 49 94 -7 213 -108 233
l-33 7 0 -167z"/>
<path d="M3190 643 l0 -173 -295 0 -295 0 0 -235 0 -235 150 0 150 0 0 85 0
85 440 0 440 0 0 -85 0 -85 145 0 145 0 0 235 0 235 -295 0 -295 0 0 173 0
172 -145 0 -145 0 0 -172z"/>
</g>
</svg>
